#!OML:ASF H:\Terrain\Patient Classification 1\Walking\liu\liu.ASF
:FULLY-SPECIFIED
:DEGREES
232
root 8.81275 16.1016 -4.39182 10.7835 -4.202 -6.99124
lowerback -9.37984 2.60327 3.28986
upperback -1.70087 3.00287 3.33649
thorax 3.47433 1.51204 1.98449
lowerneck -17.1681 -5.9419 -13.5464
upperneck 15.8139 -7.70141 15.0668
head 8.92565 -3.00961 6.44283
rclavicle -1.54058e-015 1.98785e-015
rhumerus -42.4425 12.615 -87.9333
rradius 50.5045
rwrist -24.3342
rhand -30.8741 -34.9654
rfingers 7.12502
rthumb -4.1616 -64.9045
lclavicle -1.54058e-015 1.98785e-015
lhumerus -51.0607 -7.24907 92.4267
lradius 22.4055
lwrist 1.53617
lhand -8.04229 -24.365
lfingers 7.12502
lthumb 17.8681 4.83417
rfemur 20.1509 6.52302 29.6798
rtibia -3.18055e-015
rfoot -7.07895 7.62323
rtoes -11.4745
lfemur -50.3618 8.42613 -15.7813
ltibia 35.2038
lfoot 0.843519 9.10221
ltoes -10.9808
233
root 8.84138 16.0894 -4.22067 10.9222 -4.0046 -6.64133
lowerback -9.30143 2.48826 3.00449
upperback -1.96285 2.9002 3.18119
thorax 3.15313 1.4573 1.95629
lowerneck -17.0254 -5.9825 -13.6638
upperneck 15.8472 -7.74286 15.0364
head 8.92072 -3.04492 6.44781
rclavicle -3.30107e-014 8.34896e-015
rhumerus -43.3557 12.3775 -88.0586
rradius 50.5029
rwrist -24.3685
rhand -30.1551 -35.4167
rfingers 7.12502
rthumb -3.46727 -65.3682
lclavicle -3.30107e-014 8.34896e-015
lhumerus -51.1642 -7.32325 92.1683
lradius 22.2172
lwrist 1.1559
lhand -6.53544 -24.0868
lfingers 7.12502
lthumb 19.3176 4.97375
rfemur 20.5104 6.13682 29.1588
rtibia 5.08889e-014
rfoot -5.92736 7.40694
rtoes -13.7978
lfemur -50.8158 8.42703 -16.407
ltibia 36.4741
lfoot 1.20848 8.30297
ltoes -8.61814
234
root 8.8969 16.0865 -3.97228 10.7957 -4.24793 -6.25599
lowerback -9.78495 2.51749 2.93891
upperback -1.94069 2.9234 3.03111
thorax 3.4484 1.4689 1.86516
lowerneck -16.7707 -5.99582 -13.7884
upperneck 15.706 -7.73571 14.9914
head 8.82832 -3.06494 6.4512
rclavicle 3.27373e-014 9.14409e-015
rhumerus -44.0177 11.8823 -87.9613
rradius 50.1262
rwrist -24.0386
rhand -29.3987 -35.8033
rfingers 7.12502
rthumb -2.73672 -65.7655
lclavicle 3.27373e-014 9.14409e-015
lhumerus -51.25 -7.01994 91.8432
lradius 22.0553
lwrist 0.467304
lhand -6.74125 -24.1904
lfingers 7.12502
lthumb 19.1197 4.88986
rfemur 21.4684 6.17259 28.3776
rtibia -3.18055e-014
rfoot -5.2098 7.35257
rtoes -15.6766
lfemur -50.4843 8.62117 -17.1667
ltibia 37.8165
lfoot 0.341762 7.68521
ltoes -7.52034
235
root 8.91321 16.0904 -3.82829 10.7663 -4.05423 -6.34184
lowerback -9.14418 2.35225 2.7203
upperback -2.18917 2.76462 3.17721
thorax 2.81922 1.3868 2.07955
lowerneck -16.8618 -5.94898 -13.9635
upperneck 15.8017 -7.67828 15.2475
head 8.88737 -3.02091 6.58657
rclavicle 7.00716e-015 5.56597e-015
rhumerus -44.4051 11.4488 -87.8982
rradius 49.4616
rwrist -23.5496
rhand -28.9423 -32.1778
rfingers 7.12502
rthumb -2.29595 -62.1452
lclavicle 7.00716e-015 5.56597e-015
lhumerus -51.0898 -6.50996 91.4827
lradius 21.5944
lwrist -0.493608
lhand -7.10683 -24.2218
lfingers 7.12502
lthumb 18.7681 4.89276
rfemur 21.8295 5.8156 28.4174
rtibia -6.67916e-014
rfoot -3.98883 6.98703
rtoes -17.1948
lfemur -50.7131 8.79387 -17.2878
ltibia 39.0163
lfoot -0.110252 7.12189
ltoes -6.69337
236
root 8.94565 16.0973 -3.64977 10.7334 -3.96121 -6.09988
lowerback -9.01802 2.27759 2.49123
upperback -2.23122 2.69715 3.11109
thorax 2.69958 1.35207 2.12388
lowerneck -17.3158 -5.99871 -14.1875
upperneck 15.993 -7.71869 15.554
head 9.06634 -3.00546 6.73674
rclavicle -2.9445e-015 -1.35174e-014
rhumerus -44.7165 11.3826 -87.9773
rradius 48.9611
rwrist -23.7668
rhand -28.8296 -26.1062
rfingers 7.12502
rthumb -2.18714 -56.0748
lclavicle -2.9445e-015 -1.35174e-014
lhumerus -50.6388 -6.31129 91.2472
lradius 21.1154
lwrist -1.08968
lhand -6.79739 -23.9788
lfingers 7.12502
lthumb 19.0657 5.10675
rfemur 22.3004 5.5309 27.979
rtibia 7.95139e-014
rfoot -2.47281 6.58879
rtoes -17.3018
lfemur -50.719 9.08606 -17.9536
ltibia 40.2507
lfoot -0.713326 6.53776
ltoes -5.37601
237
root 8.98723 16.1114 -3.45308 10.6033 -3.99061 -5.5983
lowerback -9.17993 2.26362 2.23437
upperback -2.03873 2.69566 2.87649
thorax 2.98875 1.35043 2.03742
lowerneck -17.9137 -6.19238 -14.2522
upperneck 16.0235 -7.90558 15.5792
head 9.22243 -3.0696 6.72669
rclavicle -1.16662e-014 -3.18055e-015
rhumerus -44.7226 10.9343 -87.8477
rradius 48.5127
rwrist -24.0524
rhand -28.5081 -23.336
rfingers 7.12502
rthumb -1.87662 -53.3075
lclavicle -1.16662e-014 -3.18055e-015
lhumerus -50.0008 -6.21426 90.9096
lradius 20.8905
lwrist -1.70768
lhand -6.72706 -23.84
lfingers 7.12502
lthumb 19.1333 5.23889
rfemur 22.9303 5.33368 27.1688
rtibia 9.54166e-015
rfoot -0.762068 6.17168
rtoes -16.2648
lfemur -50.2736 9.32491 -18.8934
ltibia 41.121
lfoot -1.45679 6.0523
ltoes -3.4965
238
root 9.01865 16.1294 -3.29293 10.4163 -4.09627 -5.32807
lowerback -8.7496 2.256 2.03661
upperback -2.08768 2.72942 2.71044
thorax 2.69812 1.36646 1.95801
lowerneck -18.1274 -6.28238 -14
upperneck 16.1285 -8.03376 15.3347
head 9.2956 -3.12725 6.5742
rclavicle 5.41315e-014 -5.96354e-015
rhumerus -44.9235 10.067 -87.7239
rradius 47.8752
rwrist -23.7463
rhand -28.8705 -24.3204
rfingers 7.12502
rthumb -2.22666 -54.2885
lclavicle 5.41315e-014 -5.96354e-015
lhumerus -49.675 -6.29909 90.5475
lradius 20.6707
lwrist -2.35256
lhand -7.09992 -23.8251
lfingers 7.12502
lthumb 18.7747 5.28887
rfemur 23.4432 5.21946 26.6898
rtibia -9.54166e-014
rfoot 1.23933 5.53036
rtoes -15.8752
lfemur -49.789 9.38562 -19.279
ltibia 41.8226
lfoot -2.19662 5.78949
ltoes -1.4384
239
root 9.03971 16.1459 -3.17461 10.3755 -4.0972 -5.31587
lowerback -7.9241 2.18374 1.86438
upperback -2.25716 2.6866 2.72043
thorax 2.05793 1.34512 2.01747
lowerneck -18.7185 -6.37036 -13.7013
upperneck 16.5663 -8.13406 14.9592
head 9.53809 -3.16403 6.37767
rclavicle 3.20043e-014 2.38542e-015
rhumerus -45.0274 9.77067 -87.8827
rradius 46.9879
rwrist -23.8339
rhand -30.6033 -25.2467
rfingers 7.12502
rthumb -3.90008 -55.1908
lclavicle 3.20043e-014 2.38542e-015
lhumerus -49.0996 -6.0063 90.0562
lradius 20.1092
lwrist -3.57287
lhand -7.42223 -23.818
lfingers 7.12502
lthumb 18.4647 5.32565
rfemur 23.6257 5.03164 26.6006
rtibia -9.85972e-014
rfoot 3.52823 4.58064
rtoes -16.818
lfemur -49.5979 9.47623 -19.3452
ltibia 42.2628
lfoot -2.5863 5.3977
ltoes -0.970917
240
root 9.07975 16.1618 -3.00434 10.2418 -4.13337 -4.83959
lowerback -7.77236 2.08078 1.44681
upperback -2.16479 2.58728 2.64326
thorax 2.05663 1.29493 2.15781
lowerneck -19.435 -6.45965 -13.7683
upperneck 16.9654 -8.17073 14.8538
head 9.81154 -3.16447 6.353
rclavicle -1.98785e-016 3.97569e-016
rhumerus -45.0446 10.0089 -88.0795
rradius 46.2153
rwrist -24.7611
rhand -31.8962 -23.3511
rfingers 7.12502
rthumb -5.14849 -53.2686
lclavicle -1.98785e-016 3.97569e-016
lhumerus -48.3717 -5.49715 89.6726
lradius 19.6879
lwrist -4.81453
lhand -7.92956 -24.1373
lfingers 7.12502
lthumb 17.9766 5.05186
rfemur 24.1184 4.83057 25.9117
rtibia 2.54444e-014
rfoot 5.66864 3.73767
rtoes -17.7187
lfemur -48.9677 9.65314 -20.1013
ltibia 42.5402
lfoot -3.27392 4.9061
ltoes -2.46335
241
root 9.12082 16.1807 -2.84465 10.1378 -4.16356 -4.47043
lowerback -7.43733 2.00184 1.17434
upperback -2.36752 2.5208 2.58485
thorax 1.65436 1.26298 2.22432
lowerneck -18.8681 -6.23844 -14.1584
upperneck 16.7638 -7.89863 15.3096
head 9.63267 -3.04298 6.63204
rclavicle 2.52581e-014 2.06736e-014
rhumerus -45.4812 9.56807 -87.8241
rradius 45.3737
rwrist -24.4385
rhand -31.404 -22.5484
rfingers 7.12502
rthumb -4.67322 -52.4769
lclavicle 2.52581e-014 2.06736e-014
lhumerus -48.2129 -5.27808 89.4581
lradius 19.772
lwrist -5.03755
lhand -7.46078 -23.8589
lfingers 7.12502
lthumb 18.4276 5.28831
rfemur 21.5671 4.5415 25.3345
rtibia 5.83763
rfoot 5.22253 4.05466
rtoes -18.5315
lfemur -48.2581 9.52096 -20.5531
ltibia 42.6727
lfoot -3.97865 4.7979
ltoes -2.89415
242
root 9.15772 16.1989 -2.68324 10.1249 -4.30407 -4.0883
lowerback -7.27545 1.96056 0.917168
upperback -2.55256 2.49655 2.44459
thorax 1.37 1.2523 2.21008
lowerneck -18.1183 -5.95733 -14.3593
upperneck 16.2955 -7.58711 15.7479
head 9.31095 -2.90194 6.8665
rclavicle -1.84559e-014 1.59028e-015
rhumerus -45.5512 8.42204 -87.2189
rradius 44.1654
rwrist -22.7583
rhand -29.8577 -23.5185
rfingers 7.12502
rthumb -3.18001 -53.4745
lclavicle -1.84559e-014 1.59028e-015
lhumerus -47.8399 -4.87734 88.8669
lradius 19.7637
lwrist -5.61417
lhand -7.34479 -24.9516
lfingers 7.12502
lthumb 18.5392 4.18493
rfemur 19.0036 4.36913 24.6747
rtibia 11.4207
rfoot 4.83735 4.17503
rtoes -18.2176
lfemur -47.5735 9.25158 -20.9122
ltibia 42.7465
lfoot -4.77894 5.02484
ltoes -1.68636
